<mxfile host="app.diagrams.net" agent="Mozilla/5.0 (Windows NT 10.0; Win64; x64; rv:137.0) Gecko/20100101 Firefox/137.0" version="27.1.1">
  <diagram name="Страница — 1" id="0iZJXTXvBDXocDnAnRHS">
    <mxGraphModel dx="2893" dy="1119" grid="1" gridSize="10" guides="1" tooltips="1" connect="1" arrows="1" fold="1" page="1" pageScale="1" pageWidth="827" pageHeight="1169" math="0" shadow="0">
      <root>
        <mxCell id="0" />
        <mxCell id="1" parent="0" />
        <mxCell id="6KdGz2hu0lXbB8BNmJrf-1" value="" style="whiteSpace=wrap;html=1;aspect=fixed;fillStyle=auto;fillColor=#FFFFFF;" parent="1" vertex="1">
          <mxGeometry x="50" y="130" width="990" height="990" as="geometry" />
        </mxCell>
        <mxCell id="6KdGz2hu0lXbB8BNmJrf-2" value="Регистрация" style="ellipse;whiteSpace=wrap;html=1;" parent="1" vertex="1">
          <mxGeometry x="130" y="380" width="90" height="60" as="geometry" />
        </mxCell>
        <mxCell id="6KdGz2hu0lXbB8BNmJrf-3" value="Пользователь&lt;br&gt;" style="shape=umlActor;verticalLabelPosition=bottom;verticalAlign=top;html=1;outlineConnect=0;" parent="1" vertex="1">
          <mxGeometry x="-20" y="430" width="30" height="60" as="geometry" />
        </mxCell>
        <mxCell id="6KdGz2hu0lXbB8BNmJrf-4" value="Администратор" style="shape=umlActor;verticalLabelPosition=bottom;verticalAlign=top;html=1;outlineConnect=0;" parent="1" vertex="1">
          <mxGeometry x="1090" y="720" width="30" height="60" as="geometry" />
        </mxCell>
        <mxCell id="6KdGz2hu0lXbB8BNmJrf-7" value="" style="endArrow=none;html=1;rounded=0;entryX=0;entryY=0.5;entryDx=0;entryDy=0;" parent="1" target="6KdGz2hu0lXbB8BNmJrf-2" edge="1">
          <mxGeometry width="50" height="50" relative="1" as="geometry">
            <mxPoint x="10" y="450" as="sourcePoint" />
            <mxPoint x="60" y="400" as="targetPoint" />
          </mxGeometry>
        </mxCell>
        <mxCell id="6KdGz2hu0lXbB8BNmJrf-8" value="Авторизация" style="ellipse;whiteSpace=wrap;html=1;" parent="1" vertex="1">
          <mxGeometry x="270" y="380" width="90" height="60" as="geometry" />
        </mxCell>
        <mxCell id="6KdGz2hu0lXbB8BNmJrf-10" value="" style="endArrow=classic;html=1;rounded=0;exitX=0;exitY=0.5;exitDx=0;exitDy=0;dashed=1;entryX=1;entryY=0.5;entryDx=0;entryDy=0;" parent="1" source="6KdGz2hu0lXbB8BNmJrf-8" target="6KdGz2hu0lXbB8BNmJrf-2" edge="1">
          <mxGeometry width="50" height="50" relative="1" as="geometry">
            <mxPoint x="230" y="400" as="sourcePoint" />
            <mxPoint x="280" y="350" as="targetPoint" />
          </mxGeometry>
        </mxCell>
        <mxCell id="6KdGz2hu0lXbB8BNmJrf-11" value="include" style="edgeLabel;html=1;align=center;verticalAlign=middle;resizable=0;points=[];" parent="6KdGz2hu0lXbB8BNmJrf-10" vertex="1" connectable="0">
          <mxGeometry x="-0.0067" relative="1" as="geometry">
            <mxPoint y="-10" as="offset" />
          </mxGeometry>
        </mxCell>
        <mxCell id="6KdGz2hu0lXbB8BNmJrf-12" value="Принять участие в аукционе" style="ellipse;whiteSpace=wrap;html=1;" parent="1" vertex="1">
          <mxGeometry x="414" y="380" width="90" height="60" as="geometry" />
        </mxCell>
        <mxCell id="6KdGz2hu0lXbB8BNmJrf-13" value="" style="endArrow=classic;html=1;rounded=0;exitX=0;exitY=0.5;exitDx=0;exitDy=0;dashed=1;entryX=1;entryY=0.5;entryDx=0;entryDy=0;" parent="1" source="6KdGz2hu0lXbB8BNmJrf-12" edge="1">
          <mxGeometry width="50" height="50" relative="1" as="geometry">
            <mxPoint x="410" y="409.41" as="sourcePoint" />
            <mxPoint x="360" y="409.41" as="targetPoint" />
          </mxGeometry>
        </mxCell>
        <mxCell id="6KdGz2hu0lXbB8BNmJrf-14" value="include" style="edgeLabel;html=1;align=center;verticalAlign=middle;resizable=0;points=[];" parent="6KdGz2hu0lXbB8BNmJrf-13" vertex="1" connectable="0">
          <mxGeometry x="-0.0067" relative="1" as="geometry">
            <mxPoint y="-10" as="offset" />
          </mxGeometry>
        </mxCell>
        <mxCell id="6KdGz2hu0lXbB8BNmJrf-15" value="" style="endArrow=classic;html=1;rounded=0;dashed=1;entryX=0.5;entryY=0;entryDx=0;entryDy=0;exitX=0;exitY=1;exitDx=0;exitDy=0;" parent="1" source="6KdGz2hu0lXbB8BNmJrf-17" target="6KdGz2hu0lXbB8BNmJrf-12" edge="1">
          <mxGeometry width="50" height="50" relative="1" as="geometry">
            <mxPoint x="400" y="330" as="sourcePoint" />
            <mxPoint x="410" y="330" as="targetPoint" />
          </mxGeometry>
        </mxCell>
        <mxCell id="6KdGz2hu0lXbB8BNmJrf-16" value="include" style="edgeLabel;html=1;align=center;verticalAlign=middle;resizable=0;points=[];" parent="6KdGz2hu0lXbB8BNmJrf-15" vertex="1" connectable="0">
          <mxGeometry x="-0.0067" relative="1" as="geometry">
            <mxPoint y="-10" as="offset" />
          </mxGeometry>
        </mxCell>
        <mxCell id="6KdGz2hu0lXbB8BNmJrf-17" value="Поставить сумму денег" style="ellipse;whiteSpace=wrap;html=1;" parent="1" vertex="1">
          <mxGeometry x="520" y="250" width="90" height="60" as="geometry" />
        </mxCell>
        <mxCell id="6KdGz2hu0lXbB8BNmJrf-18" value="500" style="ellipse;whiteSpace=wrap;html=1;" parent="1" vertex="1">
          <mxGeometry x="430" y="170" width="90" height="60" as="geometry" />
        </mxCell>
        <mxCell id="6KdGz2hu0lXbB8BNmJrf-19" value="5000" style="ellipse;whiteSpace=wrap;html=1;" parent="1" vertex="1">
          <mxGeometry x="650" y="160" width="90" height="60" as="geometry" />
        </mxCell>
        <mxCell id="6KdGz2hu0lXbB8BNmJrf-20" value="1000" style="ellipse;whiteSpace=wrap;html=1;" parent="1" vertex="1">
          <mxGeometry x="540" y="160" width="90" height="60" as="geometry" />
        </mxCell>
        <mxCell id="6KdGz2hu0lXbB8BNmJrf-21" value="100" style="ellipse;whiteSpace=wrap;html=1;" parent="1" vertex="1">
          <mxGeometry x="360" y="240" width="90" height="60" as="geometry" />
        </mxCell>
        <mxCell id="6KdGz2hu0lXbB8BNmJrf-22" value="" style="endArrow=classic;html=1;rounded=0;dashed=1;entryX=0;entryY=0.5;entryDx=0;entryDy=0;exitX=1;exitY=0.5;exitDx=0;exitDy=0;" parent="1" source="6KdGz2hu0lXbB8BNmJrf-21" target="6KdGz2hu0lXbB8BNmJrf-17" edge="1">
          <mxGeometry width="50" height="50" relative="1" as="geometry">
            <mxPoint x="280" y="290" as="sourcePoint" />
            <mxPoint x="307" y="349" as="targetPoint" />
          </mxGeometry>
        </mxCell>
        <mxCell id="6KdGz2hu0lXbB8BNmJrf-23" value="extend" style="edgeLabel;html=1;align=center;verticalAlign=middle;resizable=0;points=[];" parent="6KdGz2hu0lXbB8BNmJrf-22" vertex="1" connectable="0">
          <mxGeometry x="-0.0067" relative="1" as="geometry">
            <mxPoint y="-10" as="offset" />
          </mxGeometry>
        </mxCell>
        <mxCell id="6KdGz2hu0lXbB8BNmJrf-25" value="" style="endArrow=classic;html=1;rounded=0;dashed=1;entryX=0;entryY=0;entryDx=0;entryDy=0;exitX=1;exitY=1;exitDx=0;exitDy=0;" parent="1" source="6KdGz2hu0lXbB8BNmJrf-18" target="6KdGz2hu0lXbB8BNmJrf-17" edge="1">
          <mxGeometry width="50" height="50" relative="1" as="geometry">
            <mxPoint x="290" y="300" as="sourcePoint" />
            <mxPoint x="360" y="310" as="targetPoint" />
          </mxGeometry>
        </mxCell>
        <mxCell id="6KdGz2hu0lXbB8BNmJrf-26" value="extend" style="edgeLabel;html=1;align=center;verticalAlign=middle;resizable=0;points=[];" parent="6KdGz2hu0lXbB8BNmJrf-25" vertex="1" connectable="0">
          <mxGeometry x="-0.0067" relative="1" as="geometry">
            <mxPoint y="-10" as="offset" />
          </mxGeometry>
        </mxCell>
        <mxCell id="6KdGz2hu0lXbB8BNmJrf-27" value="" style="endArrow=classic;html=1;rounded=0;dashed=1;entryX=0.5;entryY=0;entryDx=0;entryDy=0;exitX=0.437;exitY=1.011;exitDx=0;exitDy=0;exitPerimeter=0;" parent="1" source="6KdGz2hu0lXbB8BNmJrf-20" target="6KdGz2hu0lXbB8BNmJrf-17" edge="1">
          <mxGeometry width="50" height="50" relative="1" as="geometry">
            <mxPoint x="347" y="251" as="sourcePoint" />
            <mxPoint x="373" y="289" as="targetPoint" />
          </mxGeometry>
        </mxCell>
        <mxCell id="6KdGz2hu0lXbB8BNmJrf-28" value="extend" style="edgeLabel;html=1;align=center;verticalAlign=middle;resizable=0;points=[];" parent="6KdGz2hu0lXbB8BNmJrf-27" vertex="1" connectable="0">
          <mxGeometry x="-0.0067" relative="1" as="geometry">
            <mxPoint y="-10" as="offset" />
          </mxGeometry>
        </mxCell>
        <mxCell id="6KdGz2hu0lXbB8BNmJrf-29" value="" style="endArrow=classic;html=1;rounded=0;dashed=1;entryX=1;entryY=0;entryDx=0;entryDy=0;exitX=0;exitY=1;exitDx=0;exitDy=0;" parent="1" source="6KdGz2hu0lXbB8BNmJrf-19" target="6KdGz2hu0lXbB8BNmJrf-17" edge="1">
          <mxGeometry width="50" height="50" relative="1" as="geometry">
            <mxPoint x="419" y="251" as="sourcePoint" />
            <mxPoint x="405" y="280" as="targetPoint" />
          </mxGeometry>
        </mxCell>
        <mxCell id="6KdGz2hu0lXbB8BNmJrf-30" value="extend" style="edgeLabel;html=1;align=center;verticalAlign=middle;resizable=0;points=[];" parent="6KdGz2hu0lXbB8BNmJrf-29" vertex="1" connectable="0">
          <mxGeometry x="-0.0067" relative="1" as="geometry">
            <mxPoint y="-10" as="offset" />
          </mxGeometry>
        </mxCell>
        <mxCell id="6KdGz2hu0lXbB8BNmJrf-31" value="Поставить свою сумму денег" style="ellipse;whiteSpace=wrap;html=1;" parent="1" vertex="1">
          <mxGeometry x="580" y="380" width="90" height="60" as="geometry" />
        </mxCell>
        <mxCell id="6KdGz2hu0lXbB8BNmJrf-32" value="" style="endArrow=classic;html=1;rounded=0;dashed=1;entryX=1;entryY=0.5;entryDx=0;entryDy=0;exitX=0;exitY=0.5;exitDx=0;exitDy=0;" parent="1" source="6KdGz2hu0lXbB8BNmJrf-31" target="6KdGz2hu0lXbB8BNmJrf-12" edge="1">
          <mxGeometry width="50" height="50" relative="1" as="geometry">
            <mxPoint x="583" y="440" as="sourcePoint" />
            <mxPoint x="507" y="440" as="targetPoint" />
          </mxGeometry>
        </mxCell>
        <mxCell id="6KdGz2hu0lXbB8BNmJrf-33" value="include" style="edgeLabel;html=1;align=center;verticalAlign=middle;resizable=0;points=[];" parent="6KdGz2hu0lXbB8BNmJrf-32" vertex="1" connectable="0">
          <mxGeometry x="-0.0067" relative="1" as="geometry">
            <mxPoint y="-10" as="offset" />
          </mxGeometry>
        </mxCell>
        <mxCell id="6KdGz2hu0lXbB8BNmJrf-34" value="Добавить картину в избранное" style="ellipse;whiteSpace=wrap;html=1;" parent="1" vertex="1">
          <mxGeometry x="414" y="460" width="90" height="60" as="geometry" />
        </mxCell>
        <mxCell id="6KdGz2hu0lXbB8BNmJrf-35" value="" style="endArrow=classic;html=1;rounded=0;exitX=0.011;exitY=0.25;exitDx=0;exitDy=0;dashed=1;entryX=1;entryY=1;entryDx=0;entryDy=0;exitPerimeter=0;" parent="1" source="6KdGz2hu0lXbB8BNmJrf-34" target="6KdGz2hu0lXbB8BNmJrf-8" edge="1">
          <mxGeometry width="50" height="50" relative="1" as="geometry">
            <mxPoint x="558" y="410.25" as="sourcePoint" />
            <mxPoint x="504" y="409.66" as="targetPoint" />
          </mxGeometry>
        </mxCell>
        <mxCell id="6KdGz2hu0lXbB8BNmJrf-36" value="include" style="edgeLabel;html=1;align=center;verticalAlign=middle;resizable=0;points=[];" parent="6KdGz2hu0lXbB8BNmJrf-35" vertex="1" connectable="0">
          <mxGeometry x="-0.0067" relative="1" as="geometry">
            <mxPoint y="-10" as="offset" />
          </mxGeometry>
        </mxCell>
        <mxCell id="6KdGz2hu0lXbB8BNmJrf-37" value="" style="endArrow=classic;html=1;rounded=0;dashed=1;entryX=1;entryY=0.5;entryDx=0;entryDy=0;" parent="1" target="6KdGz2hu0lXbB8BNmJrf-34" edge="1">
          <mxGeometry width="50" height="50" relative="1" as="geometry">
            <mxPoint x="560" y="490" as="sourcePoint" />
            <mxPoint x="530" y="460" as="targetPoint" />
          </mxGeometry>
        </mxCell>
        <mxCell id="6KdGz2hu0lXbB8BNmJrf-38" value="extend" style="edgeLabel;html=1;align=center;verticalAlign=middle;resizable=0;points=[];" parent="6KdGz2hu0lXbB8BNmJrf-37" vertex="1" connectable="0">
          <mxGeometry x="-0.0067" relative="1" as="geometry">
            <mxPoint y="-10" as="offset" />
          </mxGeometry>
        </mxCell>
        <mxCell id="6KdGz2hu0lXbB8BNmJrf-39" value="Убрать из избранного" style="ellipse;whiteSpace=wrap;html=1;" parent="1" vertex="1">
          <mxGeometry x="560" y="460" width="90" height="60" as="geometry" />
        </mxCell>
        <mxCell id="6KdGz2hu0lXbB8BNmJrf-40" value="Добавить картину" style="ellipse;whiteSpace=wrap;html=1;" parent="1" vertex="1">
          <mxGeometry x="680" y="610" width="90" height="60" as="geometry" />
        </mxCell>
        <mxCell id="6KdGz2hu0lXbB8BNmJrf-43" value="" style="endArrow=none;html=1;rounded=0;entryX=0;entryY=0.3333333333333333;entryDx=0;entryDy=0;entryPerimeter=0;exitX=1;exitY=0.5;exitDx=0;exitDy=0;" parent="1" source="6KdGz2hu0lXbB8BNmJrf-44" target="6KdGz2hu0lXbB8BNmJrf-4" edge="1">
          <mxGeometry width="50" height="50" relative="1" as="geometry">
            <mxPoint x="710" y="790" as="sourcePoint" />
            <mxPoint x="790" y="800" as="targetPoint" />
          </mxGeometry>
        </mxCell>
        <mxCell id="6KdGz2hu0lXbB8BNmJrf-44" value="Просмотр всех авторизованных пользователей" style="ellipse;whiteSpace=wrap;html=1;" parent="1" vertex="1">
          <mxGeometry x="680" y="690" width="90" height="60" as="geometry" />
        </mxCell>
        <mxCell id="6KdGz2hu0lXbB8BNmJrf-46" value="" style="endArrow=classic;html=1;rounded=0;exitX=0;exitY=0.5;exitDx=0;exitDy=0;dashed=1;entryX=0.325;entryY=1.025;entryDx=0;entryDy=0;entryPerimeter=0;" parent="1" source="6KdGz2hu0lXbB8BNmJrf-44" target="6KdGz2hu0lXbB8BNmJrf-8" edge="1">
          <mxGeometry width="50" height="50" relative="1" as="geometry">
            <mxPoint x="425" y="570" as="sourcePoint" />
            <mxPoint x="320" y="450" as="targetPoint" />
            <Array as="points">
              <mxPoint x="360" y="620" />
            </Array>
          </mxGeometry>
        </mxCell>
        <mxCell id="6KdGz2hu0lXbB8BNmJrf-47" value="include" style="edgeLabel;html=1;align=center;verticalAlign=middle;resizable=0;points=[];" parent="6KdGz2hu0lXbB8BNmJrf-46" vertex="1" connectable="0">
          <mxGeometry x="-0.0067" relative="1" as="geometry">
            <mxPoint y="-10" as="offset" />
          </mxGeometry>
        </mxCell>
        <mxCell id="6KdGz2hu0lXbB8BNmJrf-48" value="База данных" style="ellipse;whiteSpace=wrap;html=1;" parent="1" vertex="1">
          <mxGeometry x="680" y="800" width="90" height="60" as="geometry" />
        </mxCell>
        <mxCell id="6KdGz2hu0lXbB8BNmJrf-49" value="" style="endArrow=none;html=1;rounded=0;exitX=1;exitY=0.5;exitDx=0;exitDy=0;entryX=0;entryY=0.3333333333333333;entryDx=0;entryDy=0;entryPerimeter=0;" parent="1" source="6KdGz2hu0lXbB8BNmJrf-48" target="6KdGz2hu0lXbB8BNmJrf-4" edge="1">
          <mxGeometry width="50" height="50" relative="1" as="geometry">
            <mxPoint x="790" y="810" as="sourcePoint" />
            <mxPoint x="1100" y="980" as="targetPoint" />
          </mxGeometry>
        </mxCell>
        <mxCell id="6KdGz2hu0lXbB8BNmJrf-50" value="" style="endArrow=classic;html=1;rounded=0;exitX=0.5;exitY=0;exitDx=0;exitDy=0;dashed=1;entryX=0.5;entryY=1;entryDx=0;entryDy=0;" parent="1" source="6KdGz2hu0lXbB8BNmJrf-48" target="6KdGz2hu0lXbB8BNmJrf-44" edge="1">
          <mxGeometry width="50" height="50" relative="1" as="geometry">
            <mxPoint x="700" y="810" as="sourcePoint" />
            <mxPoint x="185" y="450" as="targetPoint" />
            <Array as="points" />
          </mxGeometry>
        </mxCell>
        <mxCell id="6KdGz2hu0lXbB8BNmJrf-51" value="include" style="edgeLabel;html=1;align=center;verticalAlign=middle;resizable=0;points=[];" parent="6KdGz2hu0lXbB8BNmJrf-50" vertex="1" connectable="0">
          <mxGeometry x="-0.0067" relative="1" as="geometry">
            <mxPoint y="-10" as="offset" />
          </mxGeometry>
        </mxCell>
        <mxCell id="6KdGz2hu0lXbB8BNmJrf-53" value="" style="endArrow=none;html=1;rounded=0;exitX=1;exitY=0.5;exitDx=0;exitDy=0;" parent="1" source="6KdGz2hu0lXbB8BNmJrf-40" edge="1">
          <mxGeometry width="50" height="50" relative="1" as="geometry">
            <mxPoint x="790" y="810" as="sourcePoint" />
            <mxPoint x="1080" y="740" as="targetPoint" />
          </mxGeometry>
        </mxCell>
        <mxCell id="6KdGz2hu0lXbB8BNmJrf-54" value="" style="endArrow=classic;html=1;rounded=0;exitX=0;exitY=0.5;exitDx=0;exitDy=0;dashed=1;entryX=0.5;entryY=1;entryDx=0;entryDy=0;" parent="1" source="6KdGz2hu0lXbB8BNmJrf-40" target="6KdGz2hu0lXbB8BNmJrf-8" edge="1">
          <mxGeometry width="50" height="50" relative="1" as="geometry">
            <mxPoint x="690" y="700" as="sourcePoint" />
            <mxPoint x="175" y="340" as="targetPoint" />
            <Array as="points">
              <mxPoint x="380" y="540" />
            </Array>
          </mxGeometry>
        </mxCell>
        <mxCell id="6KdGz2hu0lXbB8BNmJrf-55" value="include" style="edgeLabel;html=1;align=center;verticalAlign=middle;resizable=0;points=[];" parent="6KdGz2hu0lXbB8BNmJrf-54" vertex="1" connectable="0">
          <mxGeometry x="-0.0067" relative="1" as="geometry">
            <mxPoint y="-10" as="offset" />
          </mxGeometry>
        </mxCell>
        <mxCell id="6KdGz2hu0lXbB8BNmJrf-56" value="Посмотреть все картины" style="ellipse;whiteSpace=wrap;html=1;" parent="1" vertex="1">
          <mxGeometry x="827" y="210" width="90" height="60" as="geometry" />
        </mxCell>
        <mxCell id="6KdGz2hu0lXbB8BNmJrf-60" value="Редактировать профиль" style="ellipse;whiteSpace=wrap;html=1;" parent="1" vertex="1">
          <mxGeometry x="190" y="290" width="90" height="60" as="geometry" />
        </mxCell>
        <mxCell id="6KdGz2hu0lXbB8BNmJrf-61" value="" style="endArrow=classic;html=1;rounded=0;exitX=0.5;exitY=0;exitDx=0;exitDy=0;dashed=1;entryX=1;entryY=1;entryDx=0;entryDy=0;" parent="1" source="6KdGz2hu0lXbB8BNmJrf-8" target="6KdGz2hu0lXbB8BNmJrf-60" edge="1">
          <mxGeometry width="50" height="50" relative="1" as="geometry">
            <mxPoint x="424" y="420" as="sourcePoint" />
            <mxPoint x="370" y="419.41" as="targetPoint" />
          </mxGeometry>
        </mxCell>
        <mxCell id="6KdGz2hu0lXbB8BNmJrf-62" value="include" style="edgeLabel;html=1;align=center;verticalAlign=middle;resizable=0;points=[];" parent="6KdGz2hu0lXbB8BNmJrf-61" vertex="1" connectable="0">
          <mxGeometry x="-0.0067" relative="1" as="geometry">
            <mxPoint y="-10" as="offset" />
          </mxGeometry>
        </mxCell>
        <mxCell id="6KdGz2hu0lXbB8BNmJrf-67" value="Изменить фото профиля" style="ellipse;whiteSpace=wrap;html=1;" parent="1" vertex="1">
          <mxGeometry x="230" y="210" width="90" height="60" as="geometry" />
        </mxCell>
        <mxCell id="6KdGz2hu0lXbB8BNmJrf-68" value="" style="endArrow=classic;html=1;rounded=0;exitX=0;exitY=1;exitDx=0;exitDy=0;dashed=1;entryX=0.5;entryY=0;entryDx=0;entryDy=0;" parent="1" source="6KdGz2hu0lXbB8BNmJrf-67" target="6KdGz2hu0lXbB8BNmJrf-60" edge="1">
          <mxGeometry width="50" height="50" relative="1" as="geometry">
            <mxPoint x="288" y="342" as="sourcePoint" />
            <mxPoint x="325" y="390" as="targetPoint" />
          </mxGeometry>
        </mxCell>
        <mxCell id="6KdGz2hu0lXbB8BNmJrf-69" value="extend" style="edgeLabel;html=1;align=center;verticalAlign=middle;resizable=0;points=[];" parent="6KdGz2hu0lXbB8BNmJrf-68" vertex="1" connectable="0">
          <mxGeometry x="-0.0067" relative="1" as="geometry">
            <mxPoint y="-10" as="offset" />
          </mxGeometry>
        </mxCell>
        <mxCell id="6KdGz2hu0lXbB8BNmJrf-70" value="Изменить имя пользователя" style="ellipse;whiteSpace=wrap;html=1;" parent="1" vertex="1">
          <mxGeometry x="120" y="190" width="90" height="60" as="geometry" />
        </mxCell>
        <mxCell id="6KdGz2hu0lXbB8BNmJrf-71" value="" style="endArrow=classic;html=1;rounded=0;exitX=1;exitY=1;exitDx=0;exitDy=0;dashed=1;entryX=0.289;entryY=0.05;entryDx=0;entryDy=0;entryPerimeter=0;" parent="1" source="6KdGz2hu0lXbB8BNmJrf-70" target="6KdGz2hu0lXbB8BNmJrf-60" edge="1">
          <mxGeometry width="50" height="50" relative="1" as="geometry">
            <mxPoint x="253" y="271" as="sourcePoint" />
            <mxPoint x="245" y="300" as="targetPoint" />
          </mxGeometry>
        </mxCell>
        <mxCell id="6KdGz2hu0lXbB8BNmJrf-72" value="extend" style="edgeLabel;html=1;align=center;verticalAlign=middle;resizable=0;points=[];" parent="6KdGz2hu0lXbB8BNmJrf-71" vertex="1" connectable="0">
          <mxGeometry x="-0.0067" relative="1" as="geometry">
            <mxPoint y="-10" as="offset" />
          </mxGeometry>
        </mxCell>
        <mxCell id="6KdGz2hu0lXbB8BNmJrf-74" value="Получить результаты аукциона" style="ellipse;whiteSpace=wrap;html=1;" parent="1" vertex="1">
          <mxGeometry x="670" y="320" width="90" height="60" as="geometry" />
        </mxCell>
        <mxCell id="6KdGz2hu0lXbB8BNmJrf-76" value="" style="endArrow=classic;html=1;rounded=0;dashed=1;entryX=1;entryY=0;entryDx=0;entryDy=0;exitX=0;exitY=0.5;exitDx=0;exitDy=0;" parent="1" source="6KdGz2hu0lXbB8BNmJrf-74" target="6KdGz2hu0lXbB8BNmJrf-12" edge="1">
          <mxGeometry width="50" height="50" relative="1" as="geometry">
            <mxPoint x="640" y="410" as="sourcePoint" />
            <mxPoint x="514" y="420" as="targetPoint" />
          </mxGeometry>
        </mxCell>
        <mxCell id="6KdGz2hu0lXbB8BNmJrf-77" value="include" style="edgeLabel;html=1;align=center;verticalAlign=middle;resizable=0;points=[];" parent="6KdGz2hu0lXbB8BNmJrf-76" vertex="1" connectable="0">
          <mxGeometry x="-0.0067" relative="1" as="geometry">
            <mxPoint y="-10" as="offset" />
          </mxGeometry>
        </mxCell>
        <mxCell id="6mVaHCkLoRMS8QQd_I1D-2" value="Зайти на акцион картины" style="ellipse;whiteSpace=wrap;html=1;" parent="1" vertex="1">
          <mxGeometry x="737" y="420" width="90" height="60" as="geometry" />
        </mxCell>
        <mxCell id="6mVaHCkLoRMS8QQd_I1D-3" value="" style="endArrow=classic;html=1;rounded=0;dashed=1;exitX=1;exitY=1;exitDx=0;exitDy=0;entryX=0.5;entryY=0;entryDx=0;entryDy=0;" parent="1" source="6KdGz2hu0lXbB8BNmJrf-74" target="6mVaHCkLoRMS8QQd_I1D-2" edge="1">
          <mxGeometry width="50" height="50" relative="1" as="geometry">
            <mxPoint x="869" y="370" as="sourcePoint" />
            <mxPoint x="690" y="409" as="targetPoint" />
          </mxGeometry>
        </mxCell>
        <mxCell id="6mVaHCkLoRMS8QQd_I1D-4" value="include" style="edgeLabel;html=1;align=center;verticalAlign=middle;resizable=0;points=[];" parent="6mVaHCkLoRMS8QQd_I1D-3" vertex="1" connectable="0">
          <mxGeometry x="-0.0067" relative="1" as="geometry">
            <mxPoint y="-10" as="offset" />
          </mxGeometry>
        </mxCell>
        <mxCell id="6mVaHCkLoRMS8QQd_I1D-5" value="" style="endArrow=none;html=1;rounded=0;entryX=0;entryY=0.5;entryDx=0;entryDy=0;" parent="1" target="6KdGz2hu0lXbB8BNmJrf-56" edge="1">
          <mxGeometry width="50" height="50" relative="1" as="geometry">
            <mxPoint x="10" y="450" as="sourcePoint" />
            <mxPoint x="30" y="160" as="targetPoint" />
            <Array as="points">
              <mxPoint x="100" y="150" />
              <mxPoint x="420" y="150" />
              <mxPoint x="760" y="150" />
            </Array>
          </mxGeometry>
        </mxCell>
        <mxCell id="3zU_SjEccIz_dwyn3kVH-1" value="Django " style="ellipse;whiteSpace=wrap;html=1;" parent="1" vertex="1">
          <mxGeometry x="750" y="540" width="90" height="60" as="geometry" />
        </mxCell>
        <mxCell id="3zU_SjEccIz_dwyn3kVH-2" value="" style="endArrow=none;html=1;rounded=0;exitX=1;exitY=1;exitDx=0;exitDy=0;" parent="1" source="3zU_SjEccIz_dwyn3kVH-1" edge="1">
          <mxGeometry width="50" height="50" relative="1" as="geometry">
            <mxPoint x="840" y="670" as="sourcePoint" />
            <mxPoint x="1080" y="740" as="targetPoint" />
          </mxGeometry>
        </mxCell>
        <mxCell id="3zU_SjEccIz_dwyn3kVH-3" value="Добавление пользователей" style="ellipse;whiteSpace=wrap;html=1;" parent="1" vertex="1">
          <mxGeometry x="860" y="490" width="90" height="60" as="geometry" />
        </mxCell>
        <mxCell id="3zU_SjEccIz_dwyn3kVH-4" value="" style="endArrow=classic;html=1;rounded=0;dashed=1;entryX=1;entryY=0;entryDx=0;entryDy=0;exitX=0;exitY=0.5;exitDx=0;exitDy=0;" parent="1" source="3zU_SjEccIz_dwyn3kVH-3" target="3zU_SjEccIz_dwyn3kVH-1" edge="1">
          <mxGeometry width="50" height="50" relative="1" as="geometry">
            <mxPoint x="606" y="500" as="sourcePoint" />
            <mxPoint x="550" y="500" as="targetPoint" />
          </mxGeometry>
        </mxCell>
        <mxCell id="3zU_SjEccIz_dwyn3kVH-5" value="extend" style="edgeLabel;html=1;align=center;verticalAlign=middle;resizable=0;points=[];" parent="3zU_SjEccIz_dwyn3kVH-4" vertex="1" connectable="0">
          <mxGeometry x="-0.0067" relative="1" as="geometry">
            <mxPoint y="-10" as="offset" />
          </mxGeometry>
        </mxCell>
        <mxCell id="3zU_SjEccIz_dwyn3kVH-6" value="Редактирование пользователей" style="ellipse;whiteSpace=wrap;html=1;" parent="1" vertex="1">
          <mxGeometry x="647" y="510" width="90" height="60" as="geometry" />
        </mxCell>
        <mxCell id="3zU_SjEccIz_dwyn3kVH-7" value="" style="endArrow=classic;html=1;rounded=0;dashed=1;entryX=0;entryY=0;entryDx=0;entryDy=0;exitX=1;exitY=0.5;exitDx=0;exitDy=0;" parent="1" source="3zU_SjEccIz_dwyn3kVH-6" target="3zU_SjEccIz_dwyn3kVH-1" edge="1">
          <mxGeometry width="50" height="50" relative="1" as="geometry">
            <mxPoint x="883" y="540" as="sourcePoint" />
            <mxPoint x="850" y="569" as="targetPoint" />
          </mxGeometry>
        </mxCell>
        <mxCell id="3zU_SjEccIz_dwyn3kVH-8" value="extend" style="edgeLabel;html=1;align=center;verticalAlign=middle;resizable=0;points=[];" parent="3zU_SjEccIz_dwyn3kVH-7" vertex="1" connectable="0">
          <mxGeometry x="-0.0067" relative="1" as="geometry">
            <mxPoint y="-10" as="offset" />
          </mxGeometry>
        </mxCell>
      </root>
    </mxGraphModel>
  </diagram>
</mxfile>
